<svg id="my-svg" width="100%" xmlns="http://www.w3.org/2000/svg" xmlns:xlink="http://www.w3.org/1999/xlink" class="erDiagram" style="max-width: 209.016px; background-color: transparent;" viewBox="0 0 209.015625 229.75" role="graphics-document document" aria-roledescription="er"><style>#my-svg{font-family:"trebuchet ms",verdana,arial,sans-serif;font-size:16px;fill:#ccc;}@keyframes edge-animation-frame{from{stroke-dashoffset:0;}}@keyframes dash{to{stroke-dashoffset:0;}}#my-svg .edge-animation-slow{stroke-dasharray:9,5!important;stroke-dashoffset:900;animation:dash 50s linear infinite;stroke-linecap:round;}#my-svg .edge-animation-fast{stroke-dasharray:9,5!important;stroke-dashoffset:900;animation:dash 20s linear infinite;stroke-linecap:round;}#my-svg .error-icon{fill:#a44141;}#my-svg .error-text{fill:#ddd;stroke:#ddd;}#my-svg .edge-thickness-normal{stroke-width:1px;}#my-svg .edge-thickness-thick{stroke-width:3.5px;}#my-svg .edge-pattern-solid{stroke-dasharray:0;}#my-svg .edge-thickness-invisible{stroke-width:0;fill:none;}#my-svg .edge-pattern-dashed{stroke-dasharray:3;}#my-svg .edge-pattern-dotted{stroke-dasharray:2;}#my-svg .marker{fill:lightgrey;stroke:lightgrey;}#my-svg .marker.cross{stroke:lightgrey;}#my-svg svg{font-family:"trebuchet ms",verdana,arial,sans-serif;font-size:16px;}#my-svg p{margin:0;}#my-svg .entityBox{fill:#1f2020;stroke:#ccc;}#my-svg .relationshipLabelBox{fill:hsl(20, 1.5873015873%, 12.3529411765%);opacity:0.7;background-color:hsl(20, 1.5873015873%, 12.3529411765%);}#my-svg .relationshipLabelBox rect{opacity:0.5;}#my-svg .labelBkg{background-color:rgba(32.0000000001, 31.3333333334, 31.0000000001, 0.5);}#my-svg .edgeLabel{background-color:hsl(0, 0%, 34.4117647059%);}#my-svg .edgeLabel .label rect{fill:hsl(0, 0%, 34.4117647059%);}#my-svg .edgeLabel .label text{fill:#ccc;}#my-svg .edgeLabel .label{fill:#ccc;font-size:14px;}#my-svg .label{font-family:"trebuchet ms",verdana,arial,sans-serif;color:#ccc;}#my-svg .edge-pattern-dashed{stroke-dasharray:8,8;}#my-svg .node rect,#my-svg .node circle,#my-svg .node ellipse,#my-svg .node polygon{fill:#1f2020;stroke:#ccc;stroke-width:1px;}#my-svg .relationshipLine{stroke:lightgrey;stroke-width:1px;fill:none;}#my-svg .marker{fill:none!important;stroke:lightgrey!important;stroke-width:1;}#my-svg [data-look=neo].labelBkg{background-color:rgba(32.0000000001, 31.3333333334, 31.0000000001, 0.5);}#my-svg .node .neo-node{stroke:#ccc;}#my-svg [data-look="neo"].node rect,#my-svg [data-look="neo"].cluster rect,#my-svg [data-look="neo"].node polygon{stroke:url(#my-svg-gradient);filter:drop-shadow( 1px 2px 2px rgba(185,185,185,1));}#my-svg [data-look="neo"].node path{stroke:url(#my-svg-gradient);stroke-width:1px;}#my-svg [data-look="neo"].node .outer-path{filter:drop-shadow( 1px 2px 2px rgba(185,185,185,1));}#my-svg [data-look="neo"].node .neo-line path{stroke:#ccc;filter:none;}#my-svg [data-look="neo"].node circle{stroke:url(#my-svg-gradient);filter:drop-shadow( 1px 2px 2px rgba(185,185,185,1));}#my-svg [data-look="neo"].node circle .state-start{fill:#000000;}#my-svg [data-look="neo"].icon-shape .icon{fill:url(#my-svg-gradient);filter:drop-shadow( 1px 2px 2px rgba(185,185,185,1));}#my-svg [data-look="neo"].icon-shape .icon-neo path{stroke:url(#my-svg-gradient);filter:drop-shadow( 1px 2px 2px rgba(185,185,185,1));}#my-svg :root{--mermaid-font-family:"trebuchet ms",verdana,arial,sans-serif;}</style><g><defs><marker id="my-svg_er-onlyOneStart" class="marker onlyOne er" refX="0" refY="9" markerWidth="18" markerHeight="18" orient="auto"><path d="M9,0 L9,18 M15,0 L15,18"/></marker></defs><defs><marker id="my-svg_er-onlyOneEnd" class="marker onlyOne er" refX="18" refY="9" markerWidth="18" markerHeight="18" orient="auto"><path d="M3,0 L3,18 M9,0 L9,18"/></marker></defs><defs><marker id="my-svg_er-zeroOrOneStart" class="marker zeroOrOne er" refX="0" refY="9" markerWidth="30" markerHeight="18" orient="auto"><circle fill="white" cx="21" cy="9" r="6"/><path d="M9,0 L9,18"/></marker></defs><defs><marker id="my-svg_er-zeroOrOneEnd" class="marker zeroOrOne er" refX="30" refY="9" markerWidth="30" markerHeight="18" orient="auto"><circle fill="white" cx="9" cy="9" r="6"/><path d="M21,0 L21,18"/></marker></defs><defs><marker id="my-svg_er-oneOrMoreStart" class="marker oneOrMore er" refX="18" refY="18" markerWidth="45" markerHeight="36" orient="auto"><path d="M0,18 Q 18,0 36,18 Q 18,36 0,18 M42,9 L42,27"/></marker></defs><defs><marker id="my-svg_er-oneOrMoreEnd" class="marker oneOrMore er" refX="27" refY="18" markerWidth="45" markerHeight="36" orient="auto"><path d="M3,9 L3,27 M9,18 Q27,0 45,18 Q27,36 9,18"/></marker></defs><defs><marker id="my-svg_er-zeroOrMoreStart" class="marker zeroOrMore er" refX="18" refY="18" markerWidth="57" markerHeight="36" orient="auto"><circle fill="white" cx="48" cy="18" r="6"/><path d="M0,18 Q18,0 36,18 Q18,36 0,18"/></marker></defs><defs><marker id="my-svg_er-zeroOrMoreEnd" class="marker zeroOrMore er" refX="39" refY="18" markerWidth="57" markerHeight="36" orient="auto"><circle fill="white" cx="9" cy="18" r="6"/><path d="M21,18 Q39,0 57,18 Q39,36 21,18"/></marker></defs><g class="root"><g class="clusters"/><g class="edgePaths"/><g class="edgeLabels"/><g class="nodes"><g class="node default" id="my-svg-entity-Location-0" data-look="classic" transform="translate(104.5078125, 114.875)"><g class="outer-path" style=""><path d="M-96.5078125 -106.875 L96.5078125 -106.875 L96.5078125 106.875 L-96.5078125 106.875" stroke="none" stroke-width="0" fill="#1f2020"/><path d="M-96.5078125 -106.875 C-44.36580659947012 -106.875, 7.776199301059762 -106.875, 96.5078125 -106.875 M-96.5078125 -106.875 C-23.96918744028801 -106.875, 48.56943761942398 -106.875, 96.5078125 -106.875 M96.5078125 -106.875 C96.5078125 -42.70568001337921, 96.5078125 21.463639973241584, 96.5078125 106.875 M96.5078125 -106.875 C96.5078125 -26.46787535166031, 96.5078125 53.93924929667938, 96.5078125 106.875 M96.5078125 106.875 C50.897651920183684 106.875, 5.287491340367367 106.875, -96.5078125 106.875 M96.5078125 106.875 C28.62611490981088 106.875, -39.25558268037824 106.875, -96.5078125 106.875 M-96.5078125 106.875 C-96.5078125 29.175237807940462, -96.5078125 -48.524524384119076, -96.5078125 -106.875 M-96.5078125 106.875 C-96.5078125 58.77316117607373, -96.5078125 10.671322352147456, -96.5078125 -106.875" stroke="#ccc" stroke-width="1.3" fill="none" stroke-dasharray="0 0"/></g><g style="" class="row-rect-odd"><path d="M-96.5078125 -64.125 L96.5078125 -64.125 L96.5078125 -21.375 L-96.5078125 -21.375" stroke="none" stroke-width="0" fill="hsl(180, 1.5873015873%, 17.3529411765%)"/><path d="M-96.5078125 -64.125 C-27.92973078948458 -64.125, 40.64835092103084 -64.125, 96.5078125 -64.125 M-96.5078125 -64.125 C-54.484805488935145 -64.125, -12.461798477870289 -64.125, 96.5078125 -64.125 M96.5078125 -64.125 C96.5078125 -53.02626260748451, 96.5078125 -41.92752521496902, 96.5078125 -21.375 M96.5078125 -64.125 C96.5078125 -51.15462163675893, 96.5078125 -38.184243273517865, 96.5078125 -21.375 M96.5078125 -21.375 C44.47479738262546 -21.375, -7.558217734749078 -21.375, -96.5078125 -21.375 M96.5078125 -21.375 C41.60922081897617 -21.375, -13.289370862047662 -21.375, -96.5078125 -21.375 M-96.5078125 -21.375 C-96.5078125 -33.64635141503169, -96.5078125 -45.91770283006337, -96.5078125 -64.125 M-96.5078125 -21.375 C-96.5078125 -32.60023402162586, -96.5078125 -43.82546804325172, -96.5078125 -64.125" stroke="#ccc" stroke-width="1.3" fill="none" stroke-dasharray="0 0"/></g><g style="" class="row-rect-even"><path d="M-96.5078125 -21.375 L96.5078125 -21.375 L96.5078125 21.375 L-96.5078125 21.375" stroke="none" stroke-width="0" fill="hsl(180, 1.5873015873%, 2.3529411765%)"/><path d="M-96.5078125 -21.375 C-50.16568630833104 -21.375, -3.8235601166620796 -21.375, 96.5078125 -21.375 M-96.5078125 -21.375 C-54.7496607095363 -21.375, -12.9915089190726 -21.375, 96.5078125 -21.375 M96.5078125 -21.375 C96.5078125 -11.157633570558932, 96.5078125 -0.9402671411178645, 96.5078125 21.375 M96.5078125 -21.375 C96.5078125 -12.3641962840215, 96.5078125 -3.353392568042999, 96.5078125 21.375 M96.5078125 21.375 C34.187699837918366 21.375, -28.132412824163268 21.375, -96.5078125 21.375 M96.5078125 21.375 C41.527126576184465 21.375, -13.45355934763107 21.375, -96.5078125 21.375 M-96.5078125 21.375 C-96.5078125 10.575122061308846, -96.5078125 -0.2247558773823073, -96.5078125 -21.375 M-96.5078125 21.375 C-96.5078125 7.085718235170452, -96.5078125 -7.203563529659096, -96.5078125 -21.375" stroke="#ccc" stroke-width="1.3" fill="none" stroke-dasharray="0 0"/></g><g style="" class="row-rect-odd"><path d="M-96.5078125 21.375 L96.5078125 21.375 L96.5078125 64.125 L-96.5078125 64.125" stroke="none" stroke-width="0" fill="hsl(180, 1.5873015873%, 17.3529411765%)"/><path d="M-96.5078125 21.375 C-49.408550811569455 21.375, -2.3092891231389103 21.375, 96.5078125 21.375 M-96.5078125 21.375 C-28.020653007413955 21.375, 40.46650648517209 21.375, 96.5078125 21.375 M96.5078125 21.375 C96.5078125 35.9615199645943, 96.5078125 50.5480399291886, 96.5078125 64.125 M96.5078125 21.375 C96.5078125 36.286340409163735, 96.5078125 51.19768081832747, 96.5078125 64.125 M96.5078125 64.125 C24.911016454447378 64.125, -46.685779591105245 64.125, -96.5078125 64.125 M96.5078125 64.125 C51.337143007317856 64.125, 6.166473514635712 64.125, -96.5078125 64.125 M-96.5078125 64.125 C-96.5078125 49.0486368388661, -96.5078125 33.972273677732204, -96.5078125 21.375 M-96.5078125 64.125 C-96.5078125 49.25358113889787, -96.5078125 34.38216227779575, -96.5078125 21.375" stroke="#ccc" stroke-width="1.3" fill="none" stroke-dasharray="0 0"/></g><g style="" class="row-rect-even"><path d="M-96.5078125 64.125 L96.5078125 64.125 L96.5078125 106.875 L-96.5078125 106.875" stroke="none" stroke-width="0" fill="hsl(180, 1.5873015873%, 2.3529411765%)"/><path d="M-96.5078125 64.125 C-52.59671236732097 64.125, -8.685612234641937 64.125, 96.5078125 64.125 M-96.5078125 64.125 C-43.372673214758635 64.125, 9.76246607048273 64.125, 96.5078125 64.125 M96.5078125 64.125 C96.5078125 79.16337351066423, 96.5078125 94.20174702132846, 96.5078125 106.875 M96.5078125 64.125 C96.5078125 74.77992504095896, 96.5078125 85.43485008191792, 96.5078125 106.875 M96.5078125 106.875 C22.333710368860295 106.875, -51.84039176227941 106.875, -96.5078125 106.875 M96.5078125 106.875 C27.413947880804116 106.875, -41.67991673839177 106.875, -96.5078125 106.875 M-96.5078125 106.875 C-96.5078125 97.79644853982113, -96.5078125 88.71789707964227, -96.5078125 64.125 M-96.5078125 106.875 C-96.5078125 94.20538977346297, -96.5078125 81.53577954692594, -96.5078125 64.125" stroke="#ccc" stroke-width="1.3" fill="none" stroke-dasharray="0 0"/></g><g class="label name" transform="translate(-30.625, -97.5)" style=""><foreignObject width="61.25" height="24"><div xmlns="http://www.w3.org/1999/xhtml" style="display: table-cell; white-space: nowrap; line-height: 1.5; max-width: 159px; text-align: start;"><span class="nodeLabel"><p>Location</p></span></div></foreignObject></g><g class="label attribute-type" transform="translate(-84.0078125, -54.75)" style=""><foreignObject width="19.546875" height="24"><div xmlns="http://www.w3.org/1999/xhtml" style="display: table-cell; white-space: nowrap; line-height: 1.5; max-width: 118px; text-align: start;"><span class="nodeLabel"><p>Int</p></span></div></foreignObject></g><g class="label attribute-name" transform="translate(-17.4140625, -54.75)" style=""><foreignObject width="13.484375" height="24"><div xmlns="http://www.w3.org/1999/xhtml" style="display: table-cell; white-space: nowrap; line-height: 1.5; max-width: 113px; text-align: start;"><span class="nodeLabel"><p>id</p></span></div></foreignObject></g><g class="label attribute-keys" transform="translate(62.0390625, -54.75)" style=""><foreignObject width="0" height="0"><div xmlns="http://www.w3.org/1999/xhtml" style="display: table-cell; white-space: nowrap; line-height: 1.5; max-width: 100px; text-align: start;"><span class="nodeLabel"></span></div></foreignObject></g><g class="label attribute-comment" transform="translate(62.0390625, -54.75)" style=""><foreignObject width="21.96875" height="24"><div xmlns="http://www.w3.org/1999/xhtml" style="display: table-cell; white-space: nowrap; line-height: 1.5; max-width: 122px; text-align: start;"><span class="nodeLabel"><p>🗝️</p></span></div></foreignObject></g><g class="label attribute-type" transform="translate(-84.0078125, -12)" style=""><foreignObject width="41.59375" height="24"><div xmlns="http://www.w3.org/1999/xhtml" style="display: table-cell; white-space: nowrap; line-height: 1.5; max-width: 139px; text-align: start;"><span class="nodeLabel"><p>String</p></span></div></foreignObject></g><g class="label attribute-name" transform="translate(-17.4140625, -12)" style=""><foreignObject width="54.453125" height="24"><div xmlns="http://www.w3.org/1999/xhtml" style="display: table-cell; white-space: nowrap; line-height: 1.5; max-width: 150px; text-align: start;"><span class="nodeLabel"><p>country</p></span></div></foreignObject></g><g class="label attribute-keys" transform="translate(62.0390625, -12)" style=""><foreignObject width="0" height="0"><div xmlns="http://www.w3.org/1999/xhtml" style="display: table-cell; white-space: nowrap; line-height: 1.5; max-width: 100px; text-align: start;"><span class="nodeLabel"></span></div></foreignObject></g><g class="label attribute-comment" transform="translate(62.0390625, -12)" style=""><foreignObject width="21.96875" height="24"><div xmlns="http://www.w3.org/1999/xhtml" style="display: table-cell; white-space: nowrap; line-height: 1.5; max-width: 122px; text-align: start;"><span class="nodeLabel"><p>❓</p></span></div></foreignObject></g><g class="label attribute-type" transform="translate(-84.0078125, 30.75)" style=""><foreignObject width="41.59375" height="24"><div xmlns="http://www.w3.org/1999/xhtml" style="display: table-cell; white-space: nowrap; line-height: 1.5; max-width: 139px; text-align: start;"><span class="nodeLabel"><p>String</p></span></div></foreignObject></g><g class="label attribute-name" transform="translate(-17.4140625, 30.75)" style=""><foreignObject width="44.875" height="24"><div xmlns="http://www.w3.org/1999/xhtml" style="display: table-cell; white-space: nowrap; line-height: 1.5; max-width: 143px; text-align: start;"><span class="nodeLabel"><p>region</p></span></div></foreignObject></g><g class="label attribute-keys" transform="translate(62.0390625, 30.75)" style=""><foreignObject width="0" height="0"><div xmlns="http://www.w3.org/1999/xhtml" style="display: table-cell; white-space: nowrap; line-height: 1.5; max-width: 100px; text-align: start;"><span class="nodeLabel"></span></div></foreignObject></g><g class="label attribute-comment" transform="translate(62.0390625, 30.75)" style=""><foreignObject width="21.96875" height="24"><div xmlns="http://www.w3.org/1999/xhtml" style="display: table-cell; white-space: nowrap; line-height: 1.5; max-width: 122px; text-align: start;"><span class="nodeLabel"><p>❓</p></span></div></foreignObject></g><g class="label attribute-type" transform="translate(-84.0078125, 73.5)" style=""><foreignObject width="41.59375" height="24"><div xmlns="http://www.w3.org/1999/xhtml" style="display: table-cell; white-space: nowrap; line-height: 1.5; max-width: 139px; text-align: start;"><span class="nodeLabel"><p>String</p></span></div></foreignObject></g><g class="label attribute-name" transform="translate(-17.4140625, 73.5)" style=""><foreignObject width="26.71875" height="24"><div xmlns="http://www.w3.org/1999/xhtml" style="display: table-cell; white-space: nowrap; line-height: 1.5; max-width: 125px; text-align: start;"><span class="nodeLabel"><p>city</p></span></div></foreignObject></g><g class="label attribute-keys" transform="translate(62.0390625, 73.5)" style=""><foreignObject width="0" height="0"><div xmlns="http://www.w3.org/1999/xhtml" style="display: table-cell; white-space: nowrap; line-height: 1.5; max-width: 100px; text-align: start;"><span class="nodeLabel"></span></div></foreignObject></g><g class="label attribute-comment" transform="translate(62.0390625, 73.5)" style=""><foreignObject width="21.96875" height="24"><div xmlns="http://www.w3.org/1999/xhtml" style="display: table-cell; white-space: nowrap; line-height: 1.5; max-width: 122px; text-align: start;"><span class="nodeLabel"><p>❓</p></span></div></foreignObject></g><g class="divider"><path d="M-96.5078125 -64.12505 L-96.5078125 -64.12495 L96.5078125 -64.12495 L96.5078125 -64.12505" stroke="none" stroke-width="0" fill="#1f2020" fill-rule="evenodd"/><path d="M-96.5078125 -64.12505 C-96.5078125 -64.12502650459487, -96.5078125 -64.12500300918975, -96.5078125 -64.12495 M-96.5078125 -64.12505 C-96.5078125 -64.1250246853226, -96.5078125 -64.1249993706452, -96.5078125 -64.12495 M-96.5078125 -64.12495 C-24.830061357162947 -64.12495, 46.847689785674106 -64.12495, 96.5078125 -64.12495 M-96.5078125 -64.12495 C-24.59092524644332 -64.12495, 47.32596200711336 -64.12495, 96.5078125 -64.12495 M96.5078125 -64.12495 C96.5078125 -64.1249866273044, 96.5078125 -64.12502325460879, 96.5078125 -64.12505 M96.5078125 -64.12495 C96.5078125 -64.12497750982199, 96.5078125 -64.12500501964396, 96.5078125 -64.12505 M96.5078125 -64.12505 C36.85101224770316 -64.12505, -22.80578800459368 -64.12505, -96.5078125 -64.12505 M96.5078125 -64.12505 C38.94755853161634 -64.12505, -18.612695436767325 -64.12505, -96.5078125 -64.12505" stroke="#ccc" stroke-width="1.3" fill="none" stroke-dasharray="0 0"/></g><g class="divider"><path d="M-29.9141125 -64.125 L-29.9140125 -64.125 L-29.9140125 106.875 L-29.9141125 106.875" stroke="none" stroke-width="0" fill="#1f2020" fill-rule="evenodd"/><path d="M-29.9141125 -64.125 C-29.91408092440075 -64.125, -29.914049348801495 -64.125, -29.9140125 -64.125 M-29.9141125 -64.125 C-29.914089482311965 -64.125, -29.914066464623925 -64.125, -29.9140125 -64.125 M-29.9140125 -64.125 C-29.9140125 -24.25106990806438, -29.9140125 15.62286018387124, -29.9140125 106.875 M-29.9140125 -64.125 C-29.9140125 -19.19803187979511, -29.9140125 25.72893624040978, -29.9140125 106.875 M-29.9140125 106.875 C-29.914047038441826 106.875, -29.914081576883653 106.875, -29.9141125 106.875 M-29.9140125 106.875 C-29.914046029165473 106.875, -29.914079558330947 106.875, -29.9141125 106.875 M-29.9141125 106.875 C-29.9141125 70.74526562740687, -29.9141125 34.61553125481372, -29.9141125 -64.125 M-29.9141125 106.875 C-29.9141125 58.685664964161944, -29.9141125 10.496329928323888, -29.9141125 -64.125" stroke="#ccc" stroke-width="1.3" fill="none" stroke-dasharray="0 0"/></g><g class="divider"><path d="M49.5390125 -64.125 L49.5391125 -64.125 L49.5391125 106.875 L49.5390125 106.875" stroke="none" stroke-width="0" fill="#1f2020" fill-rule="evenodd"/><path d="M49.5390125 -64.125 C49.539052289440626 -64.125, 49.539092078881254 -64.125, 49.5391125 -64.125 M49.5390125 -64.125 C49.53904925081185 -64.125, 49.53908600162371 -64.125, 49.5391125 -64.125 M49.5391125 -64.125 C49.5391125 -2.697710699485036, 49.5391125 58.72957860102993, 49.5391125 106.875 M49.5391125 -64.125 C49.5391125 -12.178279631345177, 49.5391125 39.768440737309646, 49.5391125 106.875 M49.5391125 106.875 C49.539076380721234 106.875, 49.539040261442466 106.875, 49.5390125 106.875 M49.5391125 106.875 C49.53907773780405 106.875, 49.53904297560809 106.875, 49.5390125 106.875 M49.5390125 106.875 C49.5390125 63.08957759079324, 49.5390125 19.30415518158648, 49.5390125 -64.125 M49.5390125 106.875 C49.5390125 69.5716014707703, 49.5390125 32.26820294154062, 49.5390125 -64.125" stroke="#ccc" stroke-width="1.3" fill="none" stroke-dasharray="0 0"/></g><g class="divider"><path d="M-96.5078125 -64.12505 L-96.5078125 -64.12495 L96.5078125 -64.12495 L96.5078125 -64.12505" stroke="none" stroke-width="0" fill="#1f2020" fill-rule="evenodd"/><path d="M-96.5078125 -64.12505 C-96.5078125 -64.12502064042204, -96.5078125 -64.12499128084407, -96.5078125 -64.12495 M-96.5078125 -64.12505 C-96.5078125 -64.1250206448038, -96.5078125 -64.1249912896076, -96.5078125 -64.12495 M-96.5078125 -64.12495 C-33.508704038091146 -64.12495, 29.490404423817708 -64.12495, 96.5078125 -64.12495 M-96.5078125 -64.12495 C-31.2497251906738 -64.12495, 34.0083621186524 -64.12495, 96.5078125 -64.12495 M96.5078125 -64.12495 C96.5078125 -64.12497557202565, 96.5078125 -64.12500114405131, 96.5078125 -64.12505 M96.5078125 -64.12495 C96.5078125 -64.12498014432528, 96.5078125 -64.12501028865057, 96.5078125 -64.12505 M96.5078125 -64.12505 C55.16359364256618 -64.12505, 13.819374785132354 -64.12505, -96.5078125 -64.12505 M96.5078125 -64.12505 C22.996136297142968 -64.12505, -50.515539905714064 -64.12505, -96.5078125 -64.12505" stroke="#ccc" stroke-width="1.3" fill="none" stroke-dasharray="0 0"/></g></g></g></g></g><defs><filter id="my-svg-drop-shadow" height="130%" width="130%"><feDropShadow dx="4" dy="4" stdDeviation="0" flood-opacity="0.06" flood-color="#FFFFFF"/></filter></defs><defs><filter id="my-svg-drop-shadow-small" height="150%" width="150%"><feDropShadow dx="2" dy="2" stdDeviation="0" flood-opacity="0.06" flood-color="#FFFFFF"/></filter></defs><linearGradient id="my-svg-gradient" gradientUnits="objectBoundingBox" x1="0%" y1="0%" x2="100%" y2="0%"><stop offset="0%" stop-color="#cccccc" stop-opacity="1"/><stop offset="100%" stop-color="hsl(180, 0%, 18.3529411765%)" stop-opacity="1"/></linearGradient></svg>