<svg id="my-svg" width="100%" xmlns="http://www.w3.org/2000/svg" xmlns:xlink="http://www.w3.org/1999/xlink" class="erDiagram" style="max-width: 218.375px; background-color: white;" viewBox="0 0 218.375 229.75" role="graphics-document document" aria-roledescription="er"><style>#my-svg{font-family:"trebuchet ms",verdana,arial,sans-serif;font-size:16px;fill:#000000;}@keyframes edge-animation-frame{from{stroke-dashoffset:0;}}@keyframes dash{to{stroke-dashoffset:0;}}#my-svg .edge-animation-slow{stroke-dasharray:9,5!important;stroke-dashoffset:900;animation:dash 50s linear infinite;stroke-linecap:round;}#my-svg .edge-animation-fast{stroke-dasharray:9,5!important;stroke-dashoffset:900;animation:dash 20s linear infinite;stroke-linecap:round;}#my-svg .error-icon{fill:#552222;}#my-svg .error-text{fill:#552222;stroke:#552222;}#my-svg .edge-thickness-normal{stroke-width:1px;}#my-svg .edge-thickness-thick{stroke-width:3.5px;}#my-svg .edge-pattern-solid{stroke-dasharray:0;}#my-svg .edge-thickness-invisible{stroke-width:0;fill:none;}#my-svg .edge-pattern-dashed{stroke-dasharray:3;}#my-svg .edge-pattern-dotted{stroke-dasharray:2;}#my-svg .marker{fill:#666;stroke:#666;}#my-svg .marker.cross{stroke:#666;}#my-svg svg{font-family:"trebuchet ms",verdana,arial,sans-serif;font-size:16px;}#my-svg p{margin:0;}#my-svg .entityBox{fill:#eee;stroke:#999;}#my-svg .relationshipLabelBox{fill:hsl(-160, 0%, 93.3333333333%);opacity:0.7;background-color:hsl(-160, 0%, 93.3333333333%);}#my-svg .relationshipLabelBox rect{opacity:0.5;}#my-svg .labelBkg{background-color:rgba(237.9999999999, 237.9999999999, 237.9999999999, 0.5);}#my-svg .edgeLabel{background-color:white;}#my-svg .edgeLabel .label rect{fill:white;}#my-svg .edgeLabel .label text{fill:#000000;}#my-svg .edgeLabel .label{fill:#999;font-size:14px;}#my-svg .label{font-family:"trebuchet ms",verdana,arial,sans-serif;color:#000000;}#my-svg .edge-pattern-dashed{stroke-dasharray:8,8;}#my-svg .node rect,#my-svg .node circle,#my-svg .node ellipse,#my-svg .node polygon{fill:#eee;stroke:#999;stroke-width:1px;}#my-svg .relationshipLine{stroke:#666;stroke-width:1px;fill:none;}#my-svg .marker{fill:none!important;stroke:#666!important;stroke-width:1;}#my-svg [data-look=neo].labelBkg{background-color:rgba(237.9999999999, 237.9999999999, 237.9999999999, 0.5);}#my-svg .node .neo-node{stroke:#999;}#my-svg [data-look="neo"].node rect,#my-svg [data-look="neo"].cluster rect,#my-svg [data-look="neo"].node polygon{stroke:url(#my-svg-gradient);filter:drop-shadow( 1px 2px 2px rgba(185,185,185,1));}#my-svg [data-look="neo"].node path{stroke:url(#my-svg-gradient);stroke-width:1px;}#my-svg [data-look="neo"].node .outer-path{filter:drop-shadow( 1px 2px 2px rgba(185,185,185,1));}#my-svg [data-look="neo"].node .neo-line path{stroke:#999;filter:none;}#my-svg [data-look="neo"].node circle{stroke:url(#my-svg-gradient);filter:drop-shadow( 1px 2px 2px rgba(185,185,185,1));}#my-svg [data-look="neo"].node circle .state-start{fill:#000000;}#my-svg [data-look="neo"].icon-shape .icon{fill:url(#my-svg-gradient);filter:drop-shadow( 1px 2px 2px rgba(185,185,185,1));}#my-svg [data-look="neo"].icon-shape .icon-neo path{stroke:url(#my-svg-gradient);filter:drop-shadow( 1px 2px 2px rgba(185,185,185,1));}#my-svg :root{--mermaid-font-family:"trebuchet ms",verdana,arial,sans-serif;}</style><g><defs><marker id="my-svg_er-onlyOneStart" class="marker onlyOne er" refX="0" refY="9" markerWidth="18" markerHeight="18" orient="auto"><path d="M9,0 L9,18 M15,0 L15,18"/></marker></defs><defs><marker id="my-svg_er-onlyOneEnd" class="marker onlyOne er" refX="18" refY="9" markerWidth="18" markerHeight="18" orient="auto"><path d="M3,0 L3,18 M9,0 L9,18"/></marker></defs><defs><marker id="my-svg_er-zeroOrOneStart" class="marker zeroOrOne er" refX="0" refY="9" markerWidth="30" markerHeight="18" orient="auto"><circle fill="white" cx="21" cy="9" r="6"/><path d="M9,0 L9,18"/></marker></defs><defs><marker id="my-svg_er-zeroOrOneEnd" class="marker zeroOrOne er" refX="30" refY="9" markerWidth="30" markerHeight="18" orient="auto"><circle fill="white" cx="9" cy="9" r="6"/><path d="M21,0 L21,18"/></marker></defs><defs><marker id="my-svg_er-oneOrMoreStart" class="marker oneOrMore er" refX="18" refY="18" markerWidth="45" markerHeight="36" orient="auto"><path d="M0,18 Q 18,0 36,18 Q 18,36 0,18 M42,9 L42,27"/></marker></defs><defs><marker id="my-svg_er-oneOrMoreEnd" class="marker oneOrMore er" refX="27" refY="18" markerWidth="45" markerHeight="36" orient="auto"><path d="M3,9 L3,27 M9,18 Q27,0 45,18 Q27,36 9,18"/></marker></defs><defs><marker id="my-svg_er-zeroOrMoreStart" class="marker zeroOrMore er" refX="18" refY="18" markerWidth="57" markerHeight="36" orient="auto"><circle fill="white" cx="48" cy="18" r="6"/><path d="M0,18 Q18,0 36,18 Q18,36 0,18"/></marker></defs><defs><marker id="my-svg_er-zeroOrMoreEnd" class="marker zeroOrMore er" refX="39" refY="18" markerWidth="57" markerHeight="36" orient="auto"><circle fill="white" cx="9" cy="18" r="6"/><path d="M21,18 Q39,0 57,18 Q39,36 21,18"/></marker></defs><g class="root"><g class="clusters"/><g class="edgePaths"/><g class="edgeLabels"/><g class="nodes"><g class="node default" id="my-svg-entity-UserSettings-0" data-look="classic" transform="translate(109.1875, 114.875)"><g class="outer-path" style=""><path d="M-101.1875 -106.875 L101.1875 -106.875 L101.1875 106.875 L-101.1875 106.875" stroke="none" stroke-width="0" fill="#eee"/><path d="M-101.1875 -106.875 C-47.60668250562397 -106.875, 5.974134988752056 -106.875, 101.1875 -106.875 M-101.1875 -106.875 C-33.79651078120257 -106.875, 33.59447843759486 -106.875, 101.1875 -106.875 M101.1875 -106.875 C101.1875 -32.12826454407157, 101.1875 42.61847091185686, 101.1875 106.875 M101.1875 -106.875 C101.1875 -53.08721178030948, 101.1875 0.7005764393810381, 101.1875 106.875 M101.1875 106.875 C46.623841241825865 106.875, -7.9398175163482705 106.875, -101.1875 106.875 M101.1875 106.875 C36.54370728705838 106.875, -28.100085425883236 106.875, -101.1875 106.875 M-101.1875 106.875 C-101.1875 45.84963975737034, -101.1875 -15.175720485259319, -101.1875 -106.875 M-101.1875 106.875 C-101.1875 35.779369218736534, -101.1875 -35.31626156252693, -101.1875 -106.875" stroke="#999" stroke-width="1.3" fill="none" stroke-dasharray="0 0"/></g><g style="" class="row-rect-odd"><path d="M-101.1875 -64.125 L101.1875 -64.125 L101.1875 -21.375 L-101.1875 -21.375" stroke="none" stroke-width="0" fill="hsl(0, 0%, 100%)"/><path d="M-101.1875 -64.125 C-28.357768887757544 -64.125, 44.47196222448491 -64.125, 101.1875 -64.125 M-101.1875 -64.125 C-27.54139166225353 -64.125, 46.10471667549294 -64.125, 101.1875 -64.125 M101.1875 -64.125 C101.1875 -52.919376133647894, 101.1875 -41.71375226729579, 101.1875 -21.375 M101.1875 -64.125 C101.1875 -51.42648589367485, 101.1875 -38.7279717873497, 101.1875 -21.375 M101.1875 -21.375 C40.41695944228069 -21.375, -20.353581115438615 -21.375, -101.1875 -21.375 M101.1875 -21.375 C29.607380585866252 -21.375, -41.972738828267495 -21.375, -101.1875 -21.375 M-101.1875 -21.375 C-101.1875 -33.24307312457431, -101.1875 -45.11114624914861, -101.1875 -64.125 M-101.1875 -21.375 C-101.1875 -34.7801065651393, -101.1875 -48.1852131302786, -101.1875 -64.125" stroke="#999" stroke-width="1.3" fill="none" stroke-dasharray="0 0"/></g><g style="" class="row-rect-even"><path d="M-101.1875 -21.375 L101.1875 -21.375 L101.1875 21.375 L-101.1875 21.375" stroke="none" stroke-width="0" fill="#f4f4f4"/><path d="M-101.1875 -21.375 C-32.38100486873523 -21.375, 36.425490262529536 -21.375, 101.1875 -21.375 M-101.1875 -21.375 C-33.41864883388779 -21.375, 34.35020233222443 -21.375, 101.1875 -21.375 M101.1875 -21.375 C101.1875 -6.955835512022039, 101.1875 7.463328975955921, 101.1875 21.375 M101.1875 -21.375 C101.1875 -6.473868525146251, 101.1875 8.427262949707497, 101.1875 21.375 M101.1875 21.375 C29.209291640212115 21.375, -42.76891671957577 21.375, -101.1875 21.375 M101.1875 21.375 C23.58408494041383 21.375, -54.01933011917234 21.375, -101.1875 21.375 M-101.1875 21.375 C-101.1875 4.4625410771458895, -101.1875 -12.449917845708221, -101.1875 -21.375 M-101.1875 21.375 C-101.1875 8.077042218801948, -101.1875 -5.2209155623961045, -101.1875 -21.375" stroke="#999" stroke-width="1.3" fill="none" stroke-dasharray="0 0"/></g><g style="" class="row-rect-odd"><path d="M-101.1875 21.375 L101.1875 21.375 L101.1875 64.125 L-101.1875 64.125" stroke="none" stroke-width="0" fill="hsl(0, 0%, 100%)"/><path d="M-101.1875 21.375 C-43.02659987142903 21.375, 15.134300257141945 21.375, 101.1875 21.375 M-101.1875 21.375 C-28.841290249448093 21.375, 43.504919501103814 21.375, 101.1875 21.375 M101.1875 21.375 C101.1875 30.40987428828373, 101.1875 39.44474857656746, 101.1875 64.125 M101.1875 21.375 C101.1875 37.80997557398424, 101.1875 54.24495114796848, 101.1875 64.125 M101.1875 64.125 C31.063906270593492 64.125, -39.059687458813016 64.125, -101.1875 64.125 M101.1875 64.125 C53.0111388428251 64.125, 4.834777685650195 64.125, -101.1875 64.125 M-101.1875 64.125 C-101.1875 47.17445412942767, -101.1875 30.22390825885534, -101.1875 21.375 M-101.1875 64.125 C-101.1875 50.60923438680098, -101.1875 37.09346877360195, -101.1875 21.375" stroke="#999" stroke-width="1.3" fill="none" stroke-dasharray="0 0"/></g><g style="" class="row-rect-even"><path d="M-101.1875 64.125 L101.1875 64.125 L101.1875 106.875 L-101.1875 106.875" stroke="none" stroke-width="0" fill="#f4f4f4"/><path d="M-101.1875 64.125 C-24.70486560964821 64.125, 51.77776878070358 64.125, 101.1875 64.125 M-101.1875 64.125 C-43.231426038513916 64.125, 14.724647922972167 64.125, 101.1875 64.125 M101.1875 64.125 C101.1875 80.27213262507901, 101.1875 96.41926525015802, 101.1875 106.875 M101.1875 64.125 C101.1875 74.37839581040353, 101.1875 84.63179162080705, 101.1875 106.875 M101.1875 106.875 C41.06516969547603 106.875, -19.05716060904794 106.875, -101.1875 106.875 M101.1875 106.875 C29.994352990285932 106.875, -41.198794019428135 106.875, -101.1875 106.875 M-101.1875 106.875 C-101.1875 94.08529312291071, -101.1875 81.29558624582143, -101.1875 64.125 M-101.1875 106.875 C-101.1875 90.4009740005976, -101.1875 73.9269480011952, -101.1875 64.125" stroke="#999" stroke-width="1.3" fill="none" stroke-dasharray="0 0"/></g><g class="label name" transform="translate(-44.359375, -97.5)" style=""><foreignObject width="88.71875" height="24"><div xmlns="http://www.w3.org/1999/xhtml" style="display: table-cell; white-space: nowrap; line-height: 1.5; max-width: 183px; text-align: start;"><span class="nodeLabel"><p>UserSettings</p></span></div></foreignObject></g><g class="label attribute-type" transform="translate(-88.6875, -54.75)" style=""><foreignObject width="19.546875" height="24"><div xmlns="http://www.w3.org/1999/xhtml" style="display: table-cell; white-space: nowrap; line-height: 1.5; max-width: 118px; text-align: start;"><span class="nodeLabel"><p>Int</p></span></div></foreignObject></g><g class="label attribute-name" transform="translate(-22.09375, -54.75)" style=""><foreignObject width="13.484375" height="24"><div xmlns="http://www.w3.org/1999/xhtml" style="display: table-cell; white-space: nowrap; line-height: 1.5; max-width: 113px; text-align: start;"><span class="nodeLabel"><p>id</p></span></div></foreignObject></g><g class="label attribute-keys" transform="translate(66.71875, -54.75)" style=""><foreignObject width="0" height="0"><div xmlns="http://www.w3.org/1999/xhtml" style="display: table-cell; white-space: nowrap; line-height: 1.5; max-width: 100px; text-align: start;"><span class="nodeLabel"></span></div></foreignObject></g><g class="label attribute-comment" transform="translate(66.71875, -54.75)" style=""><foreignObject width="21.96875" height="24"><div xmlns="http://www.w3.org/1999/xhtml" style="display: table-cell; white-space: nowrap; line-height: 1.5; max-width: 122px; text-align: start;"><span class="nodeLabel"><p>🗝️</p></span></div></foreignObject></g><g class="label attribute-type" transform="translate(-88.6875, -12)" style=""><foreignObject width="41.59375" height="24"><div xmlns="http://www.w3.org/1999/xhtml" style="display: table-cell; white-space: nowrap; line-height: 1.5; max-width: 139px; text-align: start;"><span class="nodeLabel"><p>String</p></span></div></foreignObject></g><g class="label attribute-name" transform="translate(-22.09375, -12)" style=""><foreignObject width="43.53125" height="24"><div xmlns="http://www.w3.org/1999/xhtml" style="display: table-cell; white-space: nowrap; line-height: 1.5; max-width: 142px; text-align: start;"><span class="nodeLabel"><p>userId</p></span></div></foreignObject></g><g class="label attribute-keys" transform="translate(66.71875, -12)" style=""><foreignObject width="0" height="0"><div xmlns="http://www.w3.org/1999/xhtml" style="display: table-cell; white-space: nowrap; line-height: 1.5; max-width: 100px; text-align: start;"><span class="nodeLabel"></span></div></foreignObject></g><g class="label attribute-comment" transform="translate(66.71875, -12)" style=""><foreignObject width="0" height="0"><div xmlns="http://www.w3.org/1999/xhtml" style="display: table-cell; white-space: nowrap; line-height: 1.5; max-width: 100px; text-align: start;"><span class="nodeLabel"></span></div></foreignObject></g><g class="label attribute-type" transform="translate(-88.6875, 30.75)" style=""><foreignObject width="41.59375" height="24"><div xmlns="http://www.w3.org/1999/xhtml" style="display: table-cell; white-space: nowrap; line-height: 1.5; max-width: 139px; text-align: start;"><span class="nodeLabel"><p>String</p></span></div></foreignObject></g><g class="label attribute-name" transform="translate(-22.09375, 30.75)" style=""><foreignObject width="45.828125" height="24"><div xmlns="http://www.w3.org/1999/xhtml" style="display: table-cell; white-space: nowrap; line-height: 1.5; max-width: 140px; text-align: start;"><span class="nodeLabel"><p>theme</p></span></div></foreignObject></g><g class="label attribute-keys" transform="translate(66.71875, 30.75)" style=""><foreignObject width="0" height="0"><div xmlns="http://www.w3.org/1999/xhtml" style="display: table-cell; white-space: nowrap; line-height: 1.5; max-width: 100px; text-align: start;"><span class="nodeLabel"></span></div></foreignObject></g><g class="label attribute-comment" transform="translate(66.71875, 30.75)" style=""><foreignObject width="0" height="0"><div xmlns="http://www.w3.org/1999/xhtml" style="display: table-cell; white-space: nowrap; line-height: 1.5; max-width: 100px; text-align: start;"><span class="nodeLabel"></span></div></foreignObject></g><g class="label attribute-type" transform="translate(-88.6875, 73.5)" style=""><foreignObject width="41.59375" height="24"><div xmlns="http://www.w3.org/1999/xhtml" style="display: table-cell; white-space: nowrap; line-height: 1.5; max-width: 139px; text-align: start;"><span class="nodeLabel"><p>String</p></span></div></foreignObject></g><g class="label attribute-name" transform="translate(-22.09375, 73.5)" style=""><foreignObject width="63.8125" height="24"><div xmlns="http://www.w3.org/1999/xhtml" style="display: table-cell; white-space: nowrap; line-height: 1.5; max-width: 158px; text-align: start;"><span class="nodeLabel"><p>language</p></span></div></foreignObject></g><g class="label attribute-keys" transform="translate(66.71875, 73.5)" style=""><foreignObject width="0" height="0"><div xmlns="http://www.w3.org/1999/xhtml" style="display: table-cell; white-space: nowrap; line-height: 1.5; max-width: 100px; text-align: start;"><span class="nodeLabel"></span></div></foreignObject></g><g class="label attribute-comment" transform="translate(66.71875, 73.5)" style=""><foreignObject width="0" height="0"><div xmlns="http://www.w3.org/1999/xhtml" style="display: table-cell; white-space: nowrap; line-height: 1.5; max-width: 100px; text-align: start;"><span class="nodeLabel"></span></div></foreignObject></g><g class="divider"><path d="M-101.1875 -64.12505 L-101.1875 -64.12495 L101.1875 -64.12495 L101.1875 -64.12505" stroke="none" stroke-width="0" fill="#eee" fill-rule="evenodd"/><path d="M-101.1875 -64.12505 C-101.1875 -64.12501797884636, -101.1875 -64.1249859576927, -101.1875 -64.12495 M-101.1875 -64.12505 C-101.1875 -64.12502896056286, -101.1875 -64.1250079211257, -101.1875 -64.12495 M-101.1875 -64.12495 C-29.493374933271383 -64.12495, 42.200750133457234 -64.12495, 101.1875 -64.12495 M-101.1875 -64.12495 C-31.57194316897119 -64.12495, 38.04361366205762 -64.12495, 101.1875 -64.12495 M101.1875 -64.12495 C101.1875 -64.1249892763998, 101.1875 -64.1250285527996, 101.1875 -64.12505 M101.1875 -64.12495 C101.1875 -64.12498641017763, 101.1875 -64.12502282035526, 101.1875 -64.12505 M101.1875 -64.12505 C44.713887961480395 -64.12505, -11.759724077039209 -64.12505, -101.1875 -64.12505 M101.1875 -64.12505 C32.49624993986215 -64.12505, -36.195000120275694 -64.12505, -101.1875 -64.12505" stroke="#999" stroke-width="1.3" fill="none" stroke-dasharray="0 0"/></g><g class="divider"><path d="M-34.5938 -64.125 L-34.5937 -64.125 L-34.5937 106.875 L-34.5938 106.875" stroke="none" stroke-width="0" fill="#eee" fill-rule="evenodd"/><path d="M-34.5938 -64.125 C-34.59377987318068 -64.125, -34.593759746361364 -64.125, -34.5937 -64.125 M-34.5938 -64.125 C-34.59377347833591 -64.125, -34.59374695667182 -64.125, -34.5937 -64.125 M-34.5937 -64.125 C-34.5937 -5.382382820322839, -34.5937 53.36023435935432, -34.5937 106.875 M-34.5937 -64.125 C-34.5937 -18.58261589947231, -34.5937 26.959768201055383, -34.5937 106.875 M-34.5937 106.875 C-34.59373928975749 106.875, -34.59377857951498 106.875, -34.5938 106.875 M-34.5937 106.875 C-34.5937276976089 106.875, -34.593755395217805 106.875, -34.5938 106.875 M-34.5938 106.875 C-34.5938 45.83655197194609, -34.5938 -15.201896056107813, -34.5938 -64.125 M-34.5938 106.875 C-34.5938 44.272287234944706, -34.5938 -18.33042553011059, -34.5938 -64.125" stroke="#999" stroke-width="1.3" fill="none" stroke-dasharray="0 0"/></g><g class="divider"><path d="M54.2187 -64.125 L54.2188 -64.125 L54.2188 106.875 L54.2187 106.875" stroke="none" stroke-width="0" fill="#eee" fill-rule="evenodd"/><path d="M54.2187 -64.125 C54.21872543474231 -64.125, 54.21875086948462 -64.125, 54.2188 -64.125 M54.2187 -64.125 C54.218723812965656 -64.125, 54.21874762593132 -64.125, 54.2188 -64.125 M54.2188 -64.125 C54.2188 -19.076511090914813, 54.2188 25.971977818170373, 54.2188 106.875 M54.2188 -64.125 C54.2188 -16.147543408013455, 54.2188 31.82991318397309, 54.2188 106.875 M54.2188 106.875 C54.218765771079106 106.875, 54.2187315421582 106.875, 54.2187 106.875 M54.2188 106.875 C54.21877072865503 106.875, 54.21874145731006 106.875, 54.2187 106.875 M54.2187 106.875 C54.2187 44.91946103109551, 54.2187 -17.036077937808983, 54.2187 -64.125 M54.2187 106.875 C54.2187 64.10410037973142, 54.2187 21.33320075946284, 54.2187 -64.125" stroke="#999" stroke-width="1.3" fill="none" stroke-dasharray="0 0"/></g><g class="divider"><path d="M-101.1875 -64.12505 L-101.1875 -64.12495 L101.1875 -64.12495 L101.1875 -64.12505" stroke="none" stroke-width="0" fill="#eee" fill-rule="evenodd"/><path d="M-101.1875 -64.12505 C-101.1875 -64.12502591777425, -101.1875 -64.1250018355485, -101.1875 -64.12495 M-101.1875 -64.12505 C-101.1875 -64.1250291049599, -101.1875 -64.1250082099198, -101.1875 -64.12495 M-101.1875 -64.12495 C-38.49192195507536 -64.12495, 24.203656089849275 -64.12495, 101.1875 -64.12495 M-101.1875 -64.12495 C-49.52726171782017 -64.12495, 2.132976564359666 -64.12495, 101.1875 -64.12495 M101.1875 -64.12495 C101.1875 -64.12498911700042, 101.1875 -64.12502823400085, 101.1875 -64.12505 M101.1875 -64.12495 C101.1875 -64.12498945635595, 101.1875 -64.1250289127119, 101.1875 -64.12505 M101.1875 -64.12505 C23.494470529419942 -64.12505, -54.198558941160115 -64.12505, -101.1875 -64.12505 M101.1875 -64.12505 C47.69395570899012 -64.12505, -5.799588582019766 -64.12505, -101.1875 -64.12505" stroke="#999" stroke-width="1.3" fill="none" stroke-dasharray="0 0"/></g></g></g></g></g><defs><filter id="my-svg-drop-shadow" height="130%" width="130%"><feDropShadow dx="4" dy="4" stdDeviation="0" flood-opacity="0.06" flood-color="#000000"/></filter></defs><defs><filter id="my-svg-drop-shadow-small" height="150%" width="150%"><feDropShadow dx="2" dy="2" stdDeviation="0" flood-opacity="0.06" flood-color="#000000"/></filter></defs><linearGradient id="my-svg-gradient" gradientUnits="objectBoundingBox" x1="0%" y1="0%" x2="100%" y2="0%"><stop offset="0%" stop-color="hsl(0, 0%, 83.3333333333%)" stop-opacity="1"/><stop offset="100%" stop-color="hsl(0, 0%, 88.9215686275%)" stop-opacity="1"/></linearGradient></svg>