<svg id="my-svg" width="100%" xmlns="http://www.w3.org/2000/svg" xmlns:xlink="http://www.w3.org/1999/xlink" class="erDiagram" style="max-width: 281.266px; background-color: white;" viewBox="0 0 281.265625 358" role="graphics-document document" aria-roledescription="er"><style>#my-svg{font-family:"trebuchet ms",verdana,arial,sans-serif;font-size:16px;fill:#333;}@keyframes edge-animation-frame{from{stroke-dashoffset:0;}}@keyframes dash{to{stroke-dashoffset:0;}}#my-svg .edge-animation-slow{stroke-dasharray:9,5!important;stroke-dashoffset:900;animation:dash 50s linear infinite;stroke-linecap:round;}#my-svg .edge-animation-fast{stroke-dasharray:9,5!important;stroke-dashoffset:900;animation:dash 20s linear infinite;stroke-linecap:round;}#my-svg .error-icon{fill:#552222;}#my-svg .error-text{fill:#552222;stroke:#552222;}#my-svg .edge-thickness-normal{stroke-width:1px;}#my-svg .edge-thickness-thick{stroke-width:3.5px;}#my-svg .edge-pattern-solid{stroke-dasharray:0;}#my-svg .edge-thickness-invisible{stroke-width:0;fill:none;}#my-svg .edge-pattern-dashed{stroke-dasharray:3;}#my-svg .edge-pattern-dotted{stroke-dasharray:2;}#my-svg .marker{fill:#333333;stroke:#333333;}#my-svg .marker.cross{stroke:#333333;}#my-svg svg{font-family:"trebuchet ms",verdana,arial,sans-serif;font-size:16px;}#my-svg p{margin:0;}#my-svg .entityBox{fill:#ECECFF;stroke:#9370DB;}#my-svg .relationshipLabelBox{fill:hsl(80, 100%, 96.2745098039%);opacity:0.7;background-color:hsl(80, 100%, 96.2745098039%);}#my-svg .relationshipLabelBox rect{opacity:0.5;}#my-svg .labelBkg{background-color:rgba(248.6666666666, 255, 235.9999999999, 0.5);}#my-svg .edgeLabel{background-color:rgba(232,232,232, 0.8);}#my-svg .edgeLabel .label rect{fill:rgba(232,232,232, 0.8);}#my-svg .edgeLabel .label text{fill:#333;}#my-svg .edgeLabel .label{fill:#9370DB;font-size:14px;}#my-svg .label{font-family:"trebuchet ms",verdana,arial,sans-serif;color:#333;}#my-svg .edge-pattern-dashed{stroke-dasharray:8,8;}#my-svg .node rect,#my-svg .node circle,#my-svg .node ellipse,#my-svg .node polygon{fill:#ECECFF;stroke:#9370DB;stroke-width:1px;}#my-svg .relationshipLine{stroke:#333333;stroke-width:1px;fill:none;}#my-svg .marker{fill:none!important;stroke:#333333!important;stroke-width:1;}#my-svg [data-look=neo].labelBkg{background-color:rgba(248.6666666666, 255, 235.9999999999, 0.5);}#my-svg .node .neo-node{stroke:#9370DB;}#my-svg [data-look="neo"].node rect,#my-svg [data-look="neo"].cluster rect,#my-svg [data-look="neo"].node polygon{stroke:#9370DB;filter:drop-shadow(1px 2px 2px rgba(185, 185, 185, 1));}#my-svg [data-look="neo"].node path{stroke:#9370DB;stroke-width:1px;}#my-svg [data-look="neo"].node .outer-path{filter:drop-shadow(1px 2px 2px rgba(185, 185, 185, 1));}#my-svg [data-look="neo"].node .neo-line path{stroke:#9370DB;filter:none;}#my-svg [data-look="neo"].node circle{stroke:#9370DB;filter:drop-shadow(1px 2px 2px rgba(185, 185, 185, 1));}#my-svg [data-look="neo"].node circle .state-start{fill:#000000;}#my-svg [data-look="neo"].icon-shape .icon{fill:#9370DB;filter:drop-shadow(1px 2px 2px rgba(185, 185, 185, 1));}#my-svg [data-look="neo"].icon-shape .icon-neo path{stroke:#9370DB;filter:drop-shadow(1px 2px 2px rgba(185, 185, 185, 1));}#my-svg :root{--mermaid-font-family:"trebuchet ms",verdana,arial,sans-serif;}</style><g><defs><marker id="my-svg_er-onlyOneStart" class="marker onlyOne er" refX="0" refY="9" markerWidth="18" markerHeight="18" orient="auto"><path d="M9,0 L9,18 M15,0 L15,18"/></marker></defs><defs><marker id="my-svg_er-onlyOneEnd" class="marker onlyOne er" refX="18" refY="9" markerWidth="18" markerHeight="18" orient="auto"><path d="M3,0 L3,18 M9,0 L9,18"/></marker></defs><defs><marker id="my-svg_er-zeroOrOneStart" class="marker zeroOrOne er" refX="0" refY="9" markerWidth="30" markerHeight="18" orient="auto"><circle fill="white" cx="21" cy="9" r="6"/><path d="M9,0 L9,18"/></marker></defs><defs><marker id="my-svg_er-zeroOrOneEnd" class="marker zeroOrOne er" refX="30" refY="9" markerWidth="30" markerHeight="18" orient="auto"><circle fill="white" cx="9" cy="9" r="6"/><path d="M21,0 L21,18"/></marker></defs><defs><marker id="my-svg_er-oneOrMoreStart" class="marker oneOrMore er" refX="18" refY="18" markerWidth="45" markerHeight="36" orient="auto"><path d="M0,18 Q 18,0 36,18 Q 18,36 0,18 M42,9 L42,27"/></marker></defs><defs><marker id="my-svg_er-oneOrMoreEnd" class="marker oneOrMore er" refX="27" refY="18" markerWidth="45" markerHeight="36" orient="auto"><path d="M3,9 L3,27 M9,18 Q27,0 45,18 Q27,36 9,18"/></marker></defs><defs><marker id="my-svg_er-zeroOrMoreStart" class="marker zeroOrMore er" refX="18" refY="18" markerWidth="57" markerHeight="36" orient="auto"><circle fill="white" cx="48" cy="18" r="6"/><path d="M0,18 Q18,0 36,18 Q18,36 0,18"/></marker></defs><defs><marker id="my-svg_er-zeroOrMoreEnd" class="marker zeroOrMore er" refX="39" refY="18" markerWidth="57" markerHeight="36" orient="auto"><circle fill="white" cx="9" cy="18" r="6"/><path d="M21,18 Q39,0 57,18 Q39,36 21,18"/></marker></defs><g class="root"><g class="clusters"/><g class="edgePaths"/><g class="edgeLabels"/><g class="nodes"><g class="node default" id="my-svg-entity-UserProfile-0" data-look="classic" transform="translate(140.6328125, 179)"><g class="outer-path" style=""><path d="M-132.6328125 -171 L132.6328125 -171 L132.6328125 171 L-132.6328125 171" stroke="none" stroke-width="0" fill="#ECECFF"/><path d="M-132.6328125 -171 C-63.647323421008934 -171, 5.338165657982131 -171, 132.6328125 -171 M-132.6328125 -171 C-52.88495464725726 -171, 26.86290320548548 -171, 132.6328125 -171 M132.6328125 -171 C132.6328125 -98.65437169305055, 132.6328125 -26.3087433861011, 132.6328125 171 M132.6328125 -171 C132.6328125 -42.07377882906417, 132.6328125 86.85244234187167, 132.6328125 171 M132.6328125 171 C73.94554085574825 171, 15.258269211496511 171, -132.6328125 171 M132.6328125 171 C34.37862344834397 171, -63.875565603312054 171, -132.6328125 171 M-132.6328125 171 C-132.6328125 40.710535454945756, -132.6328125 -89.57892909010849, -132.6328125 -171 M-132.6328125 171 C-132.6328125 102.18039399938706, -132.6328125 33.36078799877413, -132.6328125 -171" stroke="#9370DB" stroke-width="1.3" fill="none" stroke-dasharray="0 0"/></g><g style="" class="row-rect-odd"><path d="M-132.6328125 -128.25 L132.6328125 -128.25 L132.6328125 -85.5 L-132.6328125 -85.5" stroke="none" stroke-width="0" fill="hsl(240, 100%, 100%)"/><path d="M-132.6328125 -128.25 C-33.862967530073774 -128.25, 64.90687743985245 -128.25, 132.6328125 -128.25 M-132.6328125 -128.25 C-29.702934046090633 -128.25, 73.22694440781873 -128.25, 132.6328125 -128.25 M132.6328125 -128.25 C132.6328125 -115.36274995266699, 132.6328125 -102.47549990533399, 132.6328125 -85.5 M132.6328125 -128.25 C132.6328125 -115.35357454681954, 132.6328125 -102.45714909363909, 132.6328125 -85.5 M132.6328125 -85.5 C76.46998560603893 -85.5, 20.30715871207785 -85.5, -132.6328125 -85.5 M132.6328125 -85.5 C49.294609266560585 -85.5, -34.04359396687883 -85.5, -132.6328125 -85.5 M-132.6328125 -85.5 C-132.6328125 -96.979824990157, -132.6328125 -108.459649980314, -132.6328125 -128.25 M-132.6328125 -85.5 C-132.6328125 -102.11547300559393, -132.6328125 -118.73094601118785, -132.6328125 -128.25" stroke="#9370DB" stroke-width="1.3" fill="none" stroke-dasharray="0 0"/></g><g style="" class="row-rect-even"><path d="M-132.6328125 -85.5 L132.6328125 -85.5 L132.6328125 -42.75 L-132.6328125 -42.75" stroke="none" stroke-width="0" fill="hsl(240, 100%, 97.2745098039%)"/><path d="M-132.6328125 -85.5 C-68.06187917420712 -85.5, -3.490945848414242 -85.5, 132.6328125 -85.5 M-132.6328125 -85.5 C-59.16998605472648 -85.5, 14.292840390547042 -85.5, 132.6328125 -85.5 M132.6328125 -85.5 C132.6328125 -70.59422307431683, 132.6328125 -55.68844614863366, 132.6328125 -42.75 M132.6328125 -85.5 C132.6328125 -76.37498233904813, 132.6328125 -67.24996467809626, 132.6328125 -42.75 M132.6328125 -42.75 C56.6828641141434 -42.75, -19.267084271713202 -42.75, -132.6328125 -42.75 M132.6328125 -42.75 C37.26625949244719 -42.75, -58.10029351510562 -42.75, -132.6328125 -42.75 M-132.6328125 -42.75 C-132.6328125 -56.99064937084581, -132.6328125 -71.23129874169162, -132.6328125 -85.5 M-132.6328125 -42.75 C-132.6328125 -56.70744379887746, -132.6328125 -70.66488759775493, -132.6328125 -85.5" stroke="#9370DB" stroke-width="1.3" fill="none" stroke-dasharray="0 0"/></g><g style="" class="row-rect-odd"><path d="M-132.6328125 -42.75 L132.6328125 -42.75 L132.6328125 0 L-132.6328125 0" stroke="none" stroke-width="0" fill="hsl(240, 100%, 100%)"/><path d="M-132.6328125 -42.75 C-70.50371360210733 -42.75, -8.374614704214636 -42.75, 132.6328125 -42.75 M-132.6328125 -42.75 C-68.52069837514266 -42.75, -4.408584250285315 -42.75, 132.6328125 -42.75 M132.6328125 -42.75 C132.6328125 -33.57328191330075, 132.6328125 -24.3965638266015, 132.6328125 0 M132.6328125 -42.75 C132.6328125 -32.47491577905147, 132.6328125 -22.199831558102943, 132.6328125 0 M132.6328125 0 C35.400770668104016 0, -61.83127116379197 0, -132.6328125 0 M132.6328125 0 C51.02922979687007 0, -30.57435290625986 0, -132.6328125 0 M-132.6328125 0 C-132.6328125 -11.105975881968812, -132.6328125 -22.211951763937623, -132.6328125 -42.75 M-132.6328125 0 C-132.6328125 -13.964159880816807, -132.6328125 -27.928319761633613, -132.6328125 -42.75" stroke="#9370DB" stroke-width="1.3" fill="none" stroke-dasharray="0 0"/></g><g style="" class="row-rect-even"><path d="M-132.6328125 0 L132.6328125 0 L132.6328125 42.75 L-132.6328125 42.75" stroke="none" stroke-width="0" fill="hsl(240, 100%, 97.2745098039%)"/><path d="M-132.6328125 0 C-38.32176739737264 0, 55.98927770525472 0, 132.6328125 0 M-132.6328125 0 C-74.314115510134 0, -15.995418520268018 0, 132.6328125 0 M132.6328125 0 C132.6328125 13.892899051928712, 132.6328125 27.785798103857424, 132.6328125 42.75 M132.6328125 0 C132.6328125 13.709462159548378, 132.6328125 27.418924319096757, 132.6328125 42.75 M132.6328125 42.75 C79.29261092350349 42.75, 25.952409347006977 42.75, -132.6328125 42.75 M132.6328125 42.75 C72.84656066730672 42.75, 13.060308834613437 42.75, -132.6328125 42.75 M-132.6328125 42.75 C-132.6328125 29.048648170238298, -132.6328125 15.347296340476596, -132.6328125 0 M-132.6328125 42.75 C-132.6328125 30.18256701428833, -132.6328125 17.61513402857666, -132.6328125 0" stroke="#9370DB" stroke-width="1.3" fill="none" stroke-dasharray="0 0"/></g><g style="" class="row-rect-odd"><path d="M-132.6328125 42.75 L132.6328125 42.75 L132.6328125 85.5 L-132.6328125 85.5" stroke="none" stroke-width="0" fill="hsl(240, 100%, 100%)"/><path d="M-132.6328125 42.75 C-67.85225957733029 42.75, -3.0717066546605736 42.75, 132.6328125 42.75 M-132.6328125 42.75 C-52.11752161551951 42.75, 28.397769268960985 42.75, 132.6328125 42.75 M132.6328125 42.75 C132.6328125 57.888364872356426, 132.6328125 73.02672974471285, 132.6328125 85.5 M132.6328125 42.75 C132.6328125 58.378923188674555, 132.6328125 74.00784637734911, 132.6328125 85.5 M132.6328125 85.5 C41.23818474700717 85.5, -50.156443005985665 85.5, -132.6328125 85.5 M132.6328125 85.5 C72.40603069763756 85.5, 12.179248895275123 85.5, -132.6328125 85.5 M-132.6328125 85.5 C-132.6328125 72.15917525338278, -132.6328125 58.81835050676557, -132.6328125 42.75 M-132.6328125 85.5 C-132.6328125 71.47432725763872, -132.6328125 57.448654515277426, -132.6328125 42.75" stroke="#9370DB" stroke-width="1.3" fill="none" stroke-dasharray="0 0"/></g><g style="" class="row-rect-even"><path d="M-132.6328125 85.5 L132.6328125 85.5 L132.6328125 128.25 L-132.6328125 128.25" stroke="none" stroke-width="0" fill="hsl(240, 100%, 97.2745098039%)"/><path d="M-132.6328125 85.5 C-41.06634686219333 85.5, 50.500118775613345 85.5, 132.6328125 85.5 M-132.6328125 85.5 C-27.763751617731444 85.5, 77.10530926453711 85.5, 132.6328125 85.5 M132.6328125 85.5 C132.6328125 95.73401492778217, 132.6328125 105.96802985556435, 132.6328125 128.25 M132.6328125 85.5 C132.6328125 102.57188190445913, 132.6328125 119.64376380891828, 132.6328125 128.25 M132.6328125 128.25 C37.571369418234596 128.25, -57.49007366353081 128.25, -132.6328125 128.25 M132.6328125 128.25 C60.37779531896986 128.25, -11.877221862060281 128.25, -132.6328125 128.25 M-132.6328125 128.25 C-132.6328125 118.6609858694301, -132.6328125 109.07197173886021, -132.6328125 85.5 M-132.6328125 128.25 C-132.6328125 118.86182986220444, -132.6328125 109.47365972440888, -132.6328125 85.5" stroke="#9370DB" stroke-width="1.3" fill="none" stroke-dasharray="0 0"/></g><g style="" class="row-rect-odd"><path d="M-132.6328125 128.25 L132.6328125 128.25 L132.6328125 171 L-132.6328125 171" stroke="none" stroke-width="0" fill="hsl(240, 100%, 100%)"/><path d="M-132.6328125 128.25 C-57.8906865764571 128.25, 16.8514393470858 128.25, 132.6328125 128.25 M-132.6328125 128.25 C-27.759534563902264 128.25, 77.11374337219547 128.25, 132.6328125 128.25 M132.6328125 128.25 C132.6328125 139.26586626016422, 132.6328125 150.28173252032843, 132.6328125 171 M132.6328125 128.25 C132.6328125 142.98926751025508, 132.6328125 157.72853502051018, 132.6328125 171 M132.6328125 171 C71.00037470870161 171, 9.367936917403227 171, -132.6328125 171 M132.6328125 171 C72.34809839331686 171, 12.063384286633706 171, -132.6328125 171 M-132.6328125 171 C-132.6328125 161.25296067470208, -132.6328125 151.50592134940416, -132.6328125 128.25 M-132.6328125 171 C-132.6328125 154.10650470585995, -132.6328125 137.21300941171992, -132.6328125 128.25" stroke="#9370DB" stroke-width="1.3" fill="none" stroke-dasharray="0 0"/></g><g class="label name" transform="translate(-39.3515625, -161.625)" style=""><foreignObject width="78.703125" height="24"><div xmlns="http://www.w3.org/1999/xhtml" style="display: table-cell; white-space: nowrap; line-height: 1.5; max-width: 175px; text-align: start;"><span class="nodeLabel"><p>UserProfile</p></span></div></foreignObject></g><g class="label attribute-type" transform="translate(-120.1328125, -118.875)" style=""><foreignObject width="19.546875" height="24"><div xmlns="http://www.w3.org/1999/xhtml" style="display: table-cell; white-space: nowrap; line-height: 1.5; max-width: 118px; text-align: start;"><span class="nodeLabel"><p>Int</p></span></div></foreignObject></g><g class="label attribute-name" transform="translate(-26.6484375, -118.875)" style=""><foreignObject width="13.484375" height="24"><div xmlns="http://www.w3.org/1999/xhtml" style="display: table-cell; white-space: nowrap; line-height: 1.5; max-width: 113px; text-align: start;"><span class="nodeLabel"><p>id</p></span></div></foreignObject></g><g class="label attribute-keys" transform="translate(98.1640625, -118.875)" style=""><foreignObject width="0" height="0"><div xmlns="http://www.w3.org/1999/xhtml" style="display: table-cell; white-space: nowrap; line-height: 1.5; max-width: 100px; text-align: start;"><span class="nodeLabel"></span></div></foreignObject></g><g class="label attribute-comment" transform="translate(98.1640625, -118.875)" style=""><foreignObject width="21.96875" height="24"><div xmlns="http://www.w3.org/1999/xhtml" style="display: table-cell; white-space: nowrap; line-height: 1.5; max-width: 122px; text-align: start;"><span class="nodeLabel"><p>🗝️</p></span></div></foreignObject></g><g class="label attribute-type" transform="translate(-120.1328125, -76.125)" style=""><foreignObject width="41.59375" height="24"><div xmlns="http://www.w3.org/1999/xhtml" style="display: table-cell; white-space: nowrap; line-height: 1.5; max-width: 139px; text-align: start;"><span class="nodeLabel"><p>String</p></span></div></foreignObject></g><g class="label attribute-name" transform="translate(-26.6484375, -76.125)" style=""><foreignObject width="43.53125" height="24"><div xmlns="http://www.w3.org/1999/xhtml" style="display: table-cell; white-space: nowrap; line-height: 1.5; max-width: 142px; text-align: start;"><span class="nodeLabel"><p>userId</p></span></div></foreignObject></g><g class="label attribute-keys" transform="translate(98.1640625, -76.125)" style=""><foreignObject width="0" height="0"><div xmlns="http://www.w3.org/1999/xhtml" style="display: table-cell; white-space: nowrap; line-height: 1.5; max-width: 100px; text-align: start;"><span class="nodeLabel"></span></div></foreignObject></g><g class="label attribute-comment" transform="translate(98.1640625, -76.125)" style=""><foreignObject width="0" height="0"><div xmlns="http://www.w3.org/1999/xhtml" style="display: table-cell; white-space: nowrap; line-height: 1.5; max-width: 100px; text-align: start;"><span class="nodeLabel"></span></div></foreignObject></g><g class="label attribute-type" transform="translate(-120.1328125, -33.375)" style=""><foreignObject width="41.59375" height="24"><div xmlns="http://www.w3.org/1999/xhtml" style="display: table-cell; white-space: nowrap; line-height: 1.5; max-width: 139px; text-align: start;"><span class="nodeLabel"><p>String</p></span></div></foreignObject></g><g class="label attribute-name" transform="translate(-26.6484375, -33.375)" style=""><foreignObject width="22.0625" height="24"><div xmlns="http://www.w3.org/1999/xhtml" style="display: table-cell; white-space: nowrap; line-height: 1.5; max-width: 121px; text-align: start;"><span class="nodeLabel"><p>bio</p></span></div></foreignObject></g><g class="label attribute-keys" transform="translate(98.1640625, -33.375)" style=""><foreignObject width="0" height="0"><div xmlns="http://www.w3.org/1999/xhtml" style="display: table-cell; white-space: nowrap; line-height: 1.5; max-width: 100px; text-align: start;"><span class="nodeLabel"></span></div></foreignObject></g><g class="label attribute-comment" transform="translate(98.1640625, -33.375)" style=""><foreignObject width="21.96875" height="24"><div xmlns="http://www.w3.org/1999/xhtml" style="display: table-cell; white-space: nowrap; line-height: 1.5; max-width: 122px; text-align: start;"><span class="nodeLabel"><p>❓</p></span></div></foreignObject></g><g class="label attribute-type" transform="translate(-120.1328125, 9.375)" style=""><foreignObject width="41.59375" height="24"><div xmlns="http://www.w3.org/1999/xhtml" style="display: table-cell; white-space: nowrap; line-height: 1.5; max-width: 139px; text-align: start;"><span class="nodeLabel"><p>String</p></span></div></foreignObject></g><g class="label attribute-name" transform="translate(-26.6484375, 9.375)" style=""><foreignObject width="45.625" height="24"><div xmlns="http://www.w3.org/1999/xhtml" style="display: table-cell; white-space: nowrap; line-height: 1.5; max-width: 140px; text-align: start;"><span class="nodeLabel"><p>avatar</p></span></div></foreignObject></g><g class="label attribute-keys" transform="translate(98.1640625, 9.375)" style=""><foreignObject width="0" height="0"><div xmlns="http://www.w3.org/1999/xhtml" style="display: table-cell; white-space: nowrap; line-height: 1.5; max-width: 100px; text-align: start;"><span class="nodeLabel"></span></div></foreignObject></g><g class="label attribute-comment" transform="translate(98.1640625, 9.375)" style=""><foreignObject width="21.96875" height="24"><div xmlns="http://www.w3.org/1999/xhtml" style="display: table-cell; white-space: nowrap; line-height: 1.5; max-width: 122px; text-align: start;"><span class="nodeLabel"><p>❓</p></span></div></foreignObject></g><g class="label attribute-type" transform="translate(-120.1328125, 52.125)" style=""><foreignObject width="52.15625" height="24"><div xmlns="http://www.w3.org/1999/xhtml" style="display: table-cell; white-space: nowrap; line-height: 1.5; max-width: 148px; text-align: start;"><span class="nodeLabel"><p>Gender</p></span></div></foreignObject></g><g class="label attribute-name" transform="translate(-26.6484375, 52.125)" style=""><foreignObject width="49.359375" height="24"><div xmlns="http://www.w3.org/1999/xhtml" style="display: table-cell; white-space: nowrap; line-height: 1.5; max-width: 144px; text-align: start;"><span class="nodeLabel"><p>gender</p></span></div></foreignObject></g><g class="label attribute-keys" transform="translate(98.1640625, 52.125)" style=""><foreignObject width="0" height="0"><div xmlns="http://www.w3.org/1999/xhtml" style="display: table-cell; white-space: nowrap; line-height: 1.5; max-width: 100px; text-align: start;"><span class="nodeLabel"></span></div></foreignObject></g><g class="label attribute-comment" transform="translate(98.1640625, 52.125)" style=""><foreignObject width="21.96875" height="24"><div xmlns="http://www.w3.org/1999/xhtml" style="display: table-cell; white-space: nowrap; line-height: 1.5; max-width: 122px; text-align: start;"><span class="nodeLabel"><p>❓</p></span></div></foreignObject></g><g class="label attribute-type" transform="translate(-120.1328125, 94.875)" style=""><foreignObject width="68.484375" height="24"><div xmlns="http://www.w3.org/1999/xhtml" style="display: table-cell; white-space: nowrap; line-height: 1.5; max-width: 164px; text-align: start;"><span class="nodeLabel"><p>DateTime</p></span></div></foreignObject></g><g class="label attribute-name" transform="translate(-26.6484375, 94.875)" style=""><foreignObject width="68.078125" height="24"><div xmlns="http://www.w3.org/1999/xhtml" style="display: table-cell; white-space: nowrap; line-height: 1.5; max-width: 161px; text-align: start;"><span class="nodeLabel"><p>birthDate</p></span></div></foreignObject></g><g class="label attribute-keys" transform="translate(98.1640625, 94.875)" style=""><foreignObject width="0" height="0"><div xmlns="http://www.w3.org/1999/xhtml" style="display: table-cell; white-space: nowrap; line-height: 1.5; max-width: 100px; text-align: start;"><span class="nodeLabel"></span></div></foreignObject></g><g class="label attribute-comment" transform="translate(98.1640625, 94.875)" style=""><foreignObject width="21.96875" height="24"><div xmlns="http://www.w3.org/1999/xhtml" style="display: table-cell; white-space: nowrap; line-height: 1.5; max-width: 122px; text-align: start;"><span class="nodeLabel"><p>❓</p></span></div></foreignObject></g><g class="label attribute-type" transform="translate(-120.1328125, 137.625)" style=""><foreignObject width="41.59375" height="24"><div xmlns="http://www.w3.org/1999/xhtml" style="display: table-cell; white-space: nowrap; line-height: 1.5; max-width: 139px; text-align: start;"><span class="nodeLabel"><p>String</p></span></div></foreignObject></g><g class="label attribute-name" transform="translate(-26.6484375, 137.625)" style=""><foreignObject width="99.8125" height="24"><div xmlns="http://www.w3.org/1999/xhtml" style="display: table-cell; white-space: nowrap; line-height: 1.5; max-width: 193px; text-align: start;"><span class="nodeLabel"><p>phoneNumber</p></span></div></foreignObject></g><g class="label attribute-keys" transform="translate(98.1640625, 137.625)" style=""><foreignObject width="0" height="0"><div xmlns="http://www.w3.org/1999/xhtml" style="display: table-cell; white-space: nowrap; line-height: 1.5; max-width: 100px; text-align: start;"><span class="nodeLabel"></span></div></foreignObject></g><g class="label attribute-comment" transform="translate(98.1640625, 137.625)" style=""><foreignObject width="21.96875" height="24"><div xmlns="http://www.w3.org/1999/xhtml" style="display: table-cell; white-space: nowrap; line-height: 1.5; max-width: 122px; text-align: start;"><span class="nodeLabel"><p>❓</p></span></div></foreignObject></g><g class="divider"><path d="M-132.6328125 -128.25005 L-132.6328125 -128.24995 L132.6328125 -128.24995 L132.6328125 -128.25005" stroke="none" stroke-width="0" fill="#ECECFF" fill-rule="evenodd"/><path d="M-132.6328125 -128.25005 C-132.6328125 -128.25001265212364, -132.6328125 -128.24997530424733, -132.6328125 -128.24995 M-132.6328125 -128.25005 C-132.6328125 -128.25001329133653, -132.6328125 -128.24997658267307, -132.6328125 -128.24995 M-132.6328125 -128.24995 C-67.13756974375444 -128.24995, -1.6423269875088806 -128.24995, 132.6328125 -128.24995 M-132.6328125 -128.24995 C-48.70273791463299 -128.24995, 35.22733667073402 -128.24995, 132.6328125 -128.24995 M132.6328125 -128.24995 C132.6328125 -128.24997987072985, 132.6328125 -128.25000974145968, 132.6328125 -128.25005 M132.6328125 -128.24995 C132.6328125 -128.24998986261554, 132.6328125 -128.25002972523106, 132.6328125 -128.25005 M132.6328125 -128.25005 C66.10662169011268 -128.25005, -0.41956911977464983 -128.25005, -132.6328125 -128.25005 M132.6328125 -128.25005 C53.73927274848397 -128.25005, -25.15426700303206 -128.25005, -132.6328125 -128.25005" stroke="#9370DB" stroke-width="1.3" fill="none" stroke-dasharray="0 0"/></g><g class="divider"><path d="M-39.1484875 -128.25 L-39.1483875 -128.25 L-39.1483875 171 L-39.1484875 171" stroke="none" stroke-width="0" fill="#ECECFF" fill-rule="evenodd"/><path d="M-39.1484875 -128.25 C-39.14846739206783 -128.25, -39.148447284135656 -128.25, -39.1483875 -128.25 M-39.1484875 -128.25 C-39.14844984844691 -128.25, -39.148412196893815 -128.25, -39.1483875 -128.25 M-39.1483875 -128.25 C-39.1483875 -43.60720243849907, -39.1483875 41.035595123001855, -39.1483875 171 M-39.1483875 -128.25 C-39.1483875 -63.671742699590084, -39.1483875 0.9065146008198326, -39.1483875 171 M-39.1483875 171 C-39.148424484217195 171, -39.14846146843439 171, -39.1484875 171 M-39.1483875 171 C-39.14841789637483 171, -39.14844829274966 171, -39.1484875 171 M-39.1484875 171 C-39.1484875 53.10595737905689, -39.1484875 -64.78808524188622, -39.1484875 -128.25 M-39.1484875 171 C-39.1484875 68.44404276861826, -39.1484875 -34.11191446276348, -39.1484875 -128.25" stroke="#9370DB" stroke-width="1.3" fill="none" stroke-dasharray="0 0"/></g><g class="divider"><path d="M85.6640125 -128.25 L85.6641125 -128.25 L85.6641125 171 L85.6640125 171" stroke="none" stroke-width="0" fill="#ECECFF" fill-rule="evenodd"/><path d="M85.6640125 -128.25 C85.66403948270343 -128.25, 85.66406646540685 -128.25, 85.6641125 -128.25 M85.6640125 -128.25 C85.66404390364792 -128.25, 85.66407530729585 -128.25, 85.6641125 -128.25 M85.6641125 -128.25 C85.6641125 -34.193713920487255, 85.6641125 59.86257215902549, 85.6641125 171 M85.6641125 -128.25 C85.6641125 -30.660324408530215, 85.6641125 66.92935118293957, 85.6641125 171 M85.6641125 171 C85.66408522557151 171, 85.66405795114302 171, 85.6640125 171 M85.6641125 171 C85.66407744331738 171, 85.66404238663478 171, 85.6640125 171 M85.6640125 171 C85.6640125 81.80410118565466, 85.6640125 -7.391797628690682, 85.6640125 -128.25 M85.6640125 171 C85.6640125 96.19449115678407, 85.6640125 21.388982313568135, 85.6640125 -128.25" stroke="#9370DB" stroke-width="1.3" fill="none" stroke-dasharray="0 0"/></g><g class="divider"><path d="M-132.6328125 -128.25005 L-132.6328125 -128.24995 L132.6328125 -128.24995 L132.6328125 -128.25005" stroke="none" stroke-width="0" fill="#ECECFF" fill-rule="evenodd"/><path d="M-132.6328125 -128.25005 C-132.6328125 -128.25002972278264, -132.6328125 -128.25000944556533, -132.6328125 -128.24995 M-132.6328125 -128.25005 C-132.6328125 -128.25002011829486, -132.6328125 -128.24999023658972, -132.6328125 -128.24995 M-132.6328125 -128.24995 C-43.76788578874667 -128.24995, 45.097040922506665 -128.24995, 132.6328125 -128.24995 M-132.6328125 -128.24995 C-33.233144838347556 -128.24995, 66.16652282330489 -128.24995, 132.6328125 -128.24995 M132.6328125 -128.24995 C132.6328125 -128.24997456662172, 132.6328125 -128.24999913324342, 132.6328125 -128.25005 M132.6328125 -128.24995 C132.6328125 -128.2499747592122, 132.6328125 -128.24999951842437, 132.6328125 -128.25005 M132.6328125 -128.25005 C74.60687377989608 -128.25005, 16.580935059792154 -128.25005, -132.6328125 -128.25005 M132.6328125 -128.25005 C47.032815709924435 -128.25005, -38.56718108015113 -128.25005, -132.6328125 -128.25005" stroke="#9370DB" stroke-width="1.3" fill="none" stroke-dasharray="0 0"/></g></g></g></g></g><defs><filter id="my-svg-drop-shadow" height="130%" width="130%"><feDropShadow dx="4" dy="4" stdDeviation="0" flood-opacity="0.06" flood-color="#000000"/></filter></defs><defs><filter id="my-svg-drop-shadow-small" height="150%" width="150%"><feDropShadow dx="2" dy="2" stdDeviation="0" flood-opacity="0.06" flood-color="#000000"/></filter></defs></svg>